# xmcd
#
# Track frame offsets: 
#        150
#        13376
#        27084
#        41955
#        54300
#        65045
#        78970
#        92456
#        101567
#        112125
#        120942
#
# Disc length: 1743 seconds
#
# Revision: 0
# Processed by: cddbd v1.5.2PL0 Copyright (c) Steve Scherf et al.
# Submitted via: ExactAudioCopy v0.95b3
#
DISCID=8b06cd0b
DTITLE=The Rolling Stones  - Milestones - Bonus Tracks  FLAC
DYEAR=1900
DGENRE=
TTITLE0=Time Is On My Side
TTITLE1=What A Shame(Recorded Nov 8 , 1964)
TTITLE2=The Under Assistant West Coast Promotional Man [Take 1] (Recor
TTITLE2=ded May 10 , 1965)
TTITLE3=Mercy Mercy
TTITLE4=That's How Strong My Love Is
TTITLE5=The Under Assistant West Coast Promotional Man[Take 2](Recorde
TTITLE5=d May 10 , 1965)
TTITLE6=High Heel Sneakers
TTITLE7=If You Need Me
TTITLE8=Look What You've Done
TTITLE9=Tell Me Baby(Recorded May 10 , 1965)
TTITLE10=2120 South Michigan Avenue[Short Version](Recorded May10 , 19
TTITLE10=65)
EXTD=
EXTT0=
EXTT1=
EXTT2=
EXTT3=
EXTT4=
EXTT5=
EXTT6=
EXTT7=
EXTT8=
EXTT9=
EXTT10=
PLAYORDER=
